<svg xmlns="http://www.w3.org/2000/svg" xmlns:xlink="http://www.w3.org/1999/xlink" viewBox="0 0 144 30" version="1.1">
    <title>Group</title>
    <g id="Symbols" stroke="none" stroke-width="1" fill="none" fill-rule="evenodd">
        <g id="logo-update-2" transform="translate(-3.000000, -5.000000)">
            <g id="Group" transform="translate(3.000000, 5.000000)">
                <polygon id="Path" fill="#0077FF" points="48.8975877 0.612312377 42.8027245 14.9310018 36.7078613 0.612312377 39.3078339 0.612312377 42.8969264 9.59446393 46.3352959 0.612312377"/>
                <path d="M50.8522772,8.68541556 C50.4230602,9.18573204 50.2007192,9.83085768 50.2305447,10.489382 C50.2214534,10.5959506 50.2214534,10.7030999 50.2305447,10.8096685 L54.3801385,9.3259885 C54.2242439,8.95821131 53.9799364,8.6346253 53.6689142,8.38396946 C53.3191681,8.12293559 52.8896483,7.99141596 52.4537096,8.01187194 C51.8393859,7.99287451 51.2480617,8.24629915 50.8381469,8.70425594 M54.3989789,12.4440715 L55.340998,14.0078231 C54.9181413,14.2571782 54.467637,14.4563485 53.9986208,14.6012951 C53.5427368,14.7528515 53.0659873,14.8323097 52.5855923,14.8367999 C51.7671947,14.8549013 50.9573729,14.6670226 50.2305447,14.2904289 C49.5854987,13.9484635 49.0536882,13.426471 48.6997637,12.7879085 C48.3345912,12.11327 48.151173,11.3552495 48.167523,10.588294 C48.1690193,9.84263508 48.3777526,9.11206856 48.7704151,8.47817137 C49.1659877,7.82740417 49.7265935,7.29279746 50.395398,6.92855005 C51.0803064,6.54594772 51.8528983,6.34793046 52.6374033,6.35391843 C53.6160915,6.31915151 54.5717447,6.65564911 55.3127374,7.29593747 C56.0640759,8.0107827 56.5604181,8.95217825 56.7257659,9.97598164 L50.6309028,12.0390033 C50.8377716,12.36255 51.1293732,12.6231995 51.4740098,12.7926186 C51.8341721,12.9702917 52.2311134,13.0606523 52.6326932,13.0563839 C53.2745486,13.0372209 53.8947777,12.8200584 54.4083991,12.4346513 M61.723177,7.59738356 C62.0780415,7.27957199 62.4780316,7.01608645 62.910121,6.81550776 C63.2275662,6.65732543 63.573518,6.56443098 63.9275015,6.54232224 L63.8332996,8.6477348 C63.3032377,8.59200564 62.7688543,8.70052659 62.3025187,8.95860108 C61.863662,9.20754633 61.5018769,9.57259072 61.2568775,10.0136624 C61.0094725,10.4434528 60.8795188,10.9307789 60.8800699,11.426691 L60.8800699,14.8462201 L58.7887876,14.8462201 L58.7887876,6.90028947 L60.6728257,6.90028947 L60.8188387,8.7419367 C61.0414635,8.30556704 61.3470416,7.91679489 61.7184669,7.59738356 M78.1755395,7.20173557 C78.6466609,7.66014559 78.9088945,8.29189018 78.9008942,8.94918089 L78.9008942,14.8509302 L76.8284523,14.8509302 L76.8284523,9.74047688 C76.8263644,9.39114625 76.7286259,9.04906138 76.5458466,8.75135689 C76.3536622,8.50493181 76.0576223,8.36213606 75.7451304,8.36512908 C75.1032768,8.36062295 74.5061119,8.69317585 74.1719586,9.24120679 C73.7624448,9.85068564 73.5473107,10.5699888 73.5549361,11.3042285 L73.5549361,14.8744807 L71.4259731,14.8744807 L71.4259731,9.74047688 C71.4207838,9.39323745 71.3197211,9.05418839 71.1339472,8.76077708 C70.9329902,8.50865429 70.6273741,8.36279205 70.3049704,8.36512908 C69.8919136,8.36237329 69.4919006,8.50965842 69.1792577,8.77961746 C68.8430436,9.07726312 68.5843842,9.45231921 68.4256424,9.87235955 C68.2424322,10.3207877 68.1495939,10.8009858 68.1524569,11.2853881 L68.1524569,14.8556403 L66.0611746,14.8556403 L66.0611746,6.90028947 L67.9452127,6.90028947 L68.1100661,8.31331804 C68.387624,7.77753637 68.8082653,7.32917837 69.3252706,7.01804185 C69.8572629,6.7044317 70.4646107,6.54160387 71.0821361,6.54703233 C71.6460203,6.52776205 72.2030656,6.67521521 72.6835685,6.9709409 C73.1102274,7.25153037 73.4135227,7.6845686 73.5313856,8.18143537 C73.8375127,7.68553339 74.2614222,7.27294968 74.7654306,6.98036109 C75.2358333,6.70037278 75.7723518,6.55079793 76.319762,6.54703233 C76.9956352,6.51223104 77.6572647,6.74973907 78.1566991,7.20644566" id="Shape" fill="#0077FF"/>
                <path d="M81.7881825,14.8509302 L83.8841749,14.8509302 L83.8841749,6.90028947 L81.7881825,6.90028947 L81.7881825,14.8509302 Z M82.0707882,3.26409598 C82.2996535,3.05095031 82.6011517,2.933046 82.9138953,2.93437796 C83.2164493,2.93522581 83.5068763,3.05342282 83.7240317,3.26409598 C83.9600446,3.46265342 84.0948243,3.75640403 84.0914191,4.06481216 C84.0946143,4.3691621 83.9594714,4.65850635 83.7240317,4.85139806 C83.5035841,5.05578245 83.2145071,5.17006871 82.9138953,5.17168498 C82.6030881,5.171946 82.3030271,5.05795633 82.0707882,4.85139806 C81.8324634,4.66032028 81.6952487,4.37025871 81.6986907,4.06481216 C81.6944057,3.75518833 81.8313645,3.46046692 82.0707882,3.26409598 L82.0707882,3.26409598 Z M88.7920941,8.68541556 C88.3611781,9.18502553 88.1371264,9.83022725 88.1656514,10.489382 C88.1565602,10.5959506 88.1565602,10.7030999 88.1656514,10.8096685 L92.3152453,9.3259885 C92.1578514,8.95907945 91.9137977,8.63582945 91.6040209,8.38396946 C91.2542749,8.12293559 90.8247551,7.99141596 90.3888164,8.01187194 C89.7742454,7.99156405 89.18239,8.24521636 88.7732537,8.70425594 M92.3340857,12.4440715 L93.2761047,14.0078231 C92.847842,14.2711779 92.3891733,14.4815329 91.9101771,14.6342658 C91.4544243,14.7863507 90.9775909,14.8658229 90.4971486,14.8697706 C89.6786883,14.8884802 88.8687177,14.7005671 88.142101,14.3233995 C87.4953154,13.9821685 86.9617977,13.4601067 86.6066099,12.8208791 C86.2434506,12.1454689 86.0601625,11.3879862 86.0743692,10.6212647 C86.0753521,9.86256094 86.2908911,9.11960464 86.6961017,8.47817137 C87.0942622,7.82949152 87.6542423,7.29548151 88.3210846,6.92855005 C89.007866,6.54636602 89.7818592,6.34840548 90.5678,6.35391843 C91.5448816,6.32035036 92.498638,6.65677235 93.238424,7.29593747 C93.9917402,8.00928446 94.4884582,8.95139289 94.6514525,9.97598164 L88.5565893,12.0390033 C88.7634582,12.36255 89.0550598,12.6231995 89.3996964,12.7926186 C89.7598587,12.9702917 90.1567999,13.0606523 90.5583798,13.0563839 C91.2002352,13.0372209 91.8204643,12.8200584 92.3340857,12.4346513" id="Shape" fill="#0077FF"/>
                <polygon id="Path" fill="#0077FF" points="99.573502 3.40539883 99.573502 6.90499957 101.631814 6.90499957 101.631814 8.55824299 99.573502 8.55824299 99.573502 14.8509302 97.4822198 14.8509302 97.4822198 8.55824299 96.1162921 8.55824299 96.1162921 6.90499957 97.4822198 6.90499957 97.4822198 3.40539883"/>
                <path d="M105.715466,8.68541556 C105.286215,9.18598382 105.062399,9.83050712 105.089024,10.489382 C105.082257,10.596037 105.082257,10.7030135 105.089024,10.8096685 L109.238617,9.3259885 C109.08457,8.95842652 108.841829,8.63477232 108.532103,8.38396946 C108.182357,8.12293559 107.752837,7.99141596 107.316899,8.01187194 C106.701071,7.99212127 106.107999,8.24555594 105.696626,8.70425594 M109.257458,12.4440715 L110.199477,14.0078231 C109.77074,14.2702885 109.312181,14.480593 108.833549,14.6342658 C108.377759,14.7861989 107.900949,14.8656671 107.420521,14.8697706 C106.602123,14.8878719 105.792301,14.6999933 105.065473,14.3233995 C104.420427,13.9814342 103.888617,13.4594417 103.534692,12.8208791 C103.171533,12.1454689 102.988245,11.3879862 103.002451,10.6212647 C103.006252,9.86163442 103.225077,9.11860757 103.633604,8.47817137 C104.031765,7.82949152 104.591745,7.29548151 105.258587,6.92855005 C105.943737,6.54655225 106.716166,6.3485766 107.500592,6.35391843 C108.47928,6.31915151 109.434934,6.65564911 110.175926,7.29593747 C110.926985,8.01099468 111.423274,8.95228969 111.588955,9.97598164 L105.494092,12.0390033 C105.699119,12.3623741 105.989171,12.6230953 106.332489,12.7926186 C106.692651,12.9702917 107.089592,13.0606523 107.491172,13.0563839 C108.133141,13.0378356 108.753551,12.8206099 109.266878,12.4346513" id="Shape" fill="#0077FF"/>
                <polygon id="Path" fill="#0077FF" points="116.511004 3.40539883 116.511004 6.90499957 118.569316 6.90499957 118.569316 8.55824299 116.511004 8.55824299 116.511004 14.8509302 114.419722 14.8509302 114.419722 8.55824299 113.053794 8.55824299 113.053794 6.90499957 114.419722 6.90499957 114.419722 3.40539883"/>
                <path d="M120.015315,12.8962407 C120.223961,12.6803335 120.511075,12.5580128 120.811321,12.5571138 C121.099473,12.5633258 121.372912,12.6856093 121.569647,12.8962407 C121.793235,13.1058138 121.918076,13.3999599 121.913484,13.706377 C121.91148,14.3213249 121.425756,14.8257305 120.811321,14.8509302 C120.514588,14.8509302 120.229353,14.7361647 120.015315,14.5306437 C119.785943,14.3192055 119.660354,14.0181364 119.671478,13.706377 C119.666886,13.3999599 119.791727,13.1058138 120.015315,12.8962407 M129.242392,12.613635 C129.671174,12.3045511 129.985793,11.8624289 130.13731,11.3560395 L130.13731,9.66511536 C129.985099,9.18059406 129.672894,8.76210647 129.251812,8.47817137 C128.800779,8.16298023 128.261788,7.99815111 127.711611,8.00716185 C127.284568,8.00330869 126.864515,8.11564852 126.496406,8.33215842 C126.123701,8.54655502 125.812307,8.85308339 125.592068,9.22236641 C125.365379,9.61245145 125.249732,10.057122 125.257651,10.5082224 C125.247573,11.4126624 125.719456,12.2541575 126.496406,12.7172571 C126.861914,12.9414315 127.28284,13.0588993 127.711611,13.0563839 C128.259045,13.0666532 128.795422,12.9016143 129.242392,12.5853744 L129.242392,12.613635 Z M132.233302,0 L132.233302,14.643686 L130.13731,14.643686 L130.13731,13.5744944 C129.320934,14.4039378 128.20179,14.8648619 127.038067,14.8509302 C126.338154,14.8609566 125.648942,14.6784702 125.045697,14.3233995 C124.440042,13.9688095 123.949445,13.4471417 123.632668,12.8208791 C123.284486,12.1140064 123.111621,11.3336905 123.128688,10.5459032 C123.110886,9.76078408 123.2941,8.98414916 123.660929,8.28976756 C124.000766,7.67027171 124.515028,7.16419882 125.139899,6.83434814 C125.800975,6.49511018 126.535333,6.32365206 127.278282,6.33507805 C127.838207,6.33377576 128.39259,6.44593428 128.907975,6.66478471 C129.383199,6.86088953 129.804682,7.16771602 130.13731,7.5597028 L130.13731,0 L132.233302,0 Z M137.141221,8.69954584 C136.710305,9.19915582 136.486254,9.84435754 136.514779,10.5035123 C136.505687,10.6100809 136.505687,10.7172302 136.514779,10.8237988 L140.664373,9.3259885 C140.506979,8.95907945 140.262925,8.63582945 139.953148,8.38396946 C139.615476,8.13049935 139.20245,7.99780024 138.780335,8.00716185 C138.165764,7.98685395 137.573908,8.24050627 137.164772,8.69954584 M140.725604,12.4393614 L141.667623,14.003113 C141.234742,14.2567844 140.772994,14.4576131 140.292275,14.6012951 C139.836299,14.7524786 139.359608,14.831927 138.879247,14.8367999 C138.060786,14.8555096 137.250816,14.6675964 136.524199,14.2904289 C135.888065,13.9493511 135.36328,13.4327403 135.012258,12.8020388 C134.649099,12.1266285 134.465811,11.3691458 134.480018,10.6024243 C134.472601,9.85497382 134.671432,9.11995158 135.054649,8.47817137 C135.453259,7.82819692 136.015126,7.29393579 136.684342,6.92855005 C137.369251,6.54594772 138.141842,6.34793046 138.926347,6.35391843 C139.903573,6.31941246 140.857662,6.65595178 141.596971,7.29593747 C142.350288,8.00928446 142.847006,8.95139289 143.01,9.97598164 L136.915137,12.0390033 C137.122006,12.36255 137.413607,12.6231995 137.758244,12.7926186 C138.118406,12.9702917 138.515347,13.0606523 138.916927,13.0563839 C139.558783,13.0372209 140.179012,12.8200584 140.692633,12.4346513" id="Shape" fill="#0077FF"/>
                <polygon id="Path" fill="#333330" fill-rule="nonzero" points="42.0679497 27.8131122 43.3914864 23.7011991 44.3335055 23.7011991 42.4070765 29.0565773 41.7099824 29.0565773 39.7694232 23.7011991 40.7114423 23.7011991"/>
                <path d="M44.8469058,26.3294322 C44.8395287,25.8406868 44.945956,25.3569265 45.1577721,24.9164036 C45.3463639,24.517188 45.6455091,24.1804454 46.0197195,23.946124 C46.399569,23.7145918 46.8372273,23.5953789 47.2820251,23.6022871 C47.9557809,23.5789754 48.6049191,23.8569308 49.0530209,24.3606124 C49.5211568,24.9250335 49.7613941,25.6440652 49.7265645,26.3765331 L49.7265645,26.4424745 C49.7361595,26.9298989 49.6346845,27.4131134 49.4298285,27.855503 C49.243182,28.2545356 48.9455796,28.5913823 48.5725911,28.8257827 C48.1866847,29.0593219 47.742427,29.1785529 47.2914453,29.1696196 C46.616042,29.191233 45.9663796,28.9095974 45.5204495,28.4018741 C45.0471698,27.83663 44.8064012,27.1126404 44.8469058,26.3765331 L44.8469058,26.3294322 Z M45.7889249,26.4377644 C45.7669703,26.9416569 45.9127415,27.4386042 46.2034133,27.8507929 C46.4612245,28.2019306 46.8748282,28.4043324 47.3102856,28.3924539 C47.7483888,28.4063541 48.1641952,28.1993356 48.417158,27.8413728 C48.7103641,27.3938426 48.8508184,26.863421 48.8175161,26.3294322 C48.8377431,25.8250436 48.6903343,25.3281599 48.3983176,24.9164036 C48.1301978,24.5803742 47.7236887,24.3846759 47.2938003,24.3846759 C46.8639119,24.3846759 46.4574028,24.5803742 46.189283,24.9164036 C45.8877792,25.3644228 45.740606,25.8985458 45.7700845,26.4377644 L45.7889249,26.4377644 Z" id="Shape" fill="#333330" fill-rule="nonzero"/>
                <path d="M51.6011824,23.7011991 L51.6294429,24.3747427 C52.008462,23.8721908 52.606301,23.5829139 53.2355854,23.597577 C54.3722884,23.597577 54.9437799,24.2365799 54.9500601,25.5145857 L54.9500601,29.0565773 L54.0363016,29.0565773 L54.0363016,25.5098756 C54.0574135,25.2020244 53.9615295,24.8975507 53.7678262,24.6573484 C53.5495274,24.4538234 53.2549526,24.3527775 52.9576898,24.3794528 C52.678624,24.3726042 52.4046729,24.4551196 52.175814,24.6149575 C51.946169,24.7730797 51.7625233,24.989229 51.6435732,25.2414002 L51.6435732,29.0565773 L50.7015542,29.0565773 L50.7015542,23.7011991 L51.6011824,23.7011991 Z" id="Path" fill="#333330" fill-rule="nonzero"/>
                <polygon id="Path" fill="#333330" fill-rule="nonzero" points="60.4137705 29.0565773 59.4717515 29.0565773 59.4717515 21.8454216 60.4137705 21.8454216"/>
                <path d="M62.7075869,23.7011991 L62.7075869,24.2946711 C63.1031752,23.8303255 63.690075,23.5733398 64.299599,23.597577 C64.9403538,23.5343682 65.5521707,23.8788682 65.83038,24.4595244 C66.0122802,24.2018221 66.2507283,23.9891521 66.5274741,23.8377918 C66.8383433,23.6708756 67.187426,23.5880699 67.5401445,23.597577 C68.7129582,23.597577 69.3111403,24.2240196 69.3346908,25.4816151 L69.3346908,29.0707076 L68.3926718,29.0707076 L68.3926718,25.5381362 C68.4165837,25.2278395 68.322371,24.9199659 68.1289064,24.6761888 C67.8875629,24.463288 67.5682773,24.3608435 67.2481186,24.3935831 C66.9374257,24.3823609 66.6341708,24.4901849 66.4003015,24.6950292 C66.1720956,24.9097214 66.0326145,25.2021276 66.0093636,25.5145857 L66.0093636,29.0707076 L65.090895,29.0707076 L65.090895,25.5475564 C65.139643,25.2295503 65.0358174,24.9071517 64.8106548,24.6773561 C64.5854921,24.4475605 64.2652748,24.3371909 63.9463419,24.3794528 C63.4111822,24.3372305 62.9109101,24.6484685 62.712297,25.1471983 L62.712297,29.0565773 L61.7938284,29.0565773 L61.7938284,23.7011991 L62.7075869,23.7011991 Z" id="Path" fill="#333330" fill-rule="nonzero"/>
                <path d="M71.4683639,23.7011991 L71.4683639,24.2946711 C71.8639523,23.8303255 72.4508521,23.5733398 73.0603761,23.597577 C73.700832,23.5357863 74.3118903,23.8798591 74.5911571,24.4595244 C74.7730573,24.2018221 75.0115054,23.9891521 75.2882511,23.8377918 C75.5991204,23.6708756 75.9482031,23.5880699 76.3009216,23.597577 C77.4737353,23.597577 78.0719174,24.2240196 78.0907578,25.4816151 L78.0907578,29.0707076 L77.1769993,29.0707076 L77.1769993,25.5381362 C77.2009113,25.2278395 77.1066986,24.9199659 76.913234,24.6761888 C76.6713168,24.4642999 76.3524827,24.3620002 76.0324462,24.3935831 C75.3809952,24.3615653 74.826686,24.8631835 74.7936912,25.5145857 L74.7936912,29.0707076 L73.8516721,29.0707076 L73.8516721,25.5475564 C73.9004201,25.2295503 73.7965945,24.9071517 73.5714319,24.6773561 C73.3462692,24.4475605 73.0260519,24.3371909 72.707119,24.3794528 C72.1723374,24.3387784 71.6729086,24.6494917 71.473074,25.1471983 L71.473074,29.0565773 L70.5593156,29.0565773 L70.5593156,23.7011991 L71.4683639,23.7011991 Z" id="Path" fill="#333330" fill-rule="nonzero"/>
                <path d="M79.1316888,26.3294322 C79.1243117,25.8406868 79.2307389,25.3569265 79.4425551,24.9164036 C79.6311469,24.517188 79.9302921,24.1804454 80.3045025,23.946124 C80.684352,23.7145918 81.1220103,23.5953789 81.5668081,23.6022871 C82.2405639,23.5789754 82.8897021,23.8569308 83.3378039,24.3606124 C83.8059398,24.9250335 84.0461771,25.6440652 84.0113475,26.3765331 L84.0113475,26.4424745 C84.0209425,26.9298989 83.9194675,27.4131134 83.7146115,27.855503 C83.527965,28.2545356 83.2303626,28.5913823 82.8573741,28.8257827 C82.4714677,29.0593219 82.02721,29.1785529 81.5762282,29.1696196 C80.904732,29.1933624 80.2574668,28.9171959 79.8099425,28.4160044 C79.3315384,27.847835 79.0888394,27.1180525 79.1316888,26.3765331 L79.1316888,26.3294322 Z M80.0737079,26.4377644 C80.0517533,26.9416569 80.1975245,27.4386042 80.4881963,27.8507929 C80.7460075,28.2019306 81.1596112,28.4043324 81.5950686,28.3924539 C82.0331718,28.4063541 82.4489782,28.1993356 82.701941,27.8413728 C83.0040971,27.3903104 83.1497239,26.8524839 83.1164294,26.3105918 C83.1366564,25.8062033 82.9892476,25.3093195 82.6972309,24.8975633 C82.429111,24.5615338 82.022602,24.3658355 81.5927136,24.3658355 C81.1628252,24.3658355 80.7563161,24.5615338 80.4881963,24.8975633 C80.1777124,25.3490619 80.0253508,25.8906081 80.0548675,26.4377644 L80.0737079,26.4377644 Z" id="Shape" fill="#333330" fill-rule="nonzero"/>
                <path d="M87.5957299,25.8442924 C86.9418809,25.6890704 86.3316115,25.3879612 85.8106038,24.9635046 C85.4508084,24.6434211 85.2479609,24.1827167 85.2548126,23.7011991 C85.2455,23.1485341 85.4989186,22.6242198 85.9377764,22.2881705 C86.4449618,21.9015289 87.071613,21.704867 87.7087722,21.7323793 C88.1661334,21.7255206 88.6189575,21.8238204 89.032309,22.0196951 C89.3994906,22.1953429 89.7108693,22.4692258 89.9319371,22.8109911 C90.1446229,23.1406983 90.2559776,23.5255269 90.2522236,23.9178634 L89.3102046,23.9178634 C89.3314398,23.5296402 89.1796708,23.1519424 88.8957162,22.8863526 C88.5658398,22.6181641 88.1472543,22.4836788 87.7229025,22.509545 C87.3324493,22.4860126 86.9455583,22.595604 86.6254503,22.8204113 C86.3621062,23.0269716 86.2147453,23.3480077 86.2298023,23.6823587 C86.2327454,23.9755465 86.3720368,24.250647 86.6066099,24.4265537 C86.9902477,24.6939329 87.4221465,24.8842883 87.8783356,24.9870551 C88.3709168,25.1119325 88.8457027,25.2986816 89.2913642,25.5428463 C89.5942367,25.7166831 89.8510422,25.9605676 90.0402693,26.2540707 C90.2066808,26.5397047 90.2914067,26.8655735 90.2851943,27.1960897 C90.3056194,27.7511429 90.0498635,28.2802931 89.6022305,28.6091183 C89.0698044,28.9856581 88.4258995,29.1715275 87.7747135,29.1366489 C87.2984267,29.1404621 86.8266505,29.0441813 86.3899455,28.8540432 C85.9927173,28.6903744 85.6486829,28.4197123 85.3961155,28.0721674 C85.1635116,27.745156 85.0413993,27.3524165 85.0475684,26.9511648 L85.9895875,26.9511648 C85.9723292,27.3505926 86.147454,27.7341159 86.460597,27.9826756 C86.8354994,28.2512186 87.2906627,28.384113 87.7511631,28.3594832 C88.1591456,28.3884038 88.5651473,28.2806891 88.9051364,28.053327 C89.1701686,27.857771 89.3217184,27.5440983 89.3102046,27.2149301 C89.3248514,26.8978662 89.1864505,26.5930338 88.9381071,26.3953735 C88.5248868,26.1373716 88.071038,25.9510547 87.5957299,25.8442924 Z" id="Path" fill="#333330" fill-rule="nonzero"/>
                <path d="M93.3326259,28.4112943 C93.6443405,28.4160477 93.9477951,28.3110057 94.1898632,28.1145583 C94.4216096,27.9328615 94.5681554,27.6636262 94.5949314,27.3703632 L95.4474586,27.3703632 C95.4260841,27.6861168 95.3167695,27.9895871 95.1318822,28.2464409 C94.9297126,28.5286303 94.6611876,28.7567148 94.3500064,28.9105644 C94.0306313,29.0733243 93.6769478,29.1573039 93.3184956,29.1554893 C92.6573278,29.186741 92.0172378,28.9185952 91.5757604,28.4254246 C91.1181836,27.8640173 90.8879126,27.1513538 90.9304773,26.4283442 L90.9304773,26.2729111 C90.9176008,25.7861856 91.0158627,25.3029305 91.2177931,24.8598825 C91.3948259,24.472227 91.6813348,24.1447883 92.0420598,23.9178634 C92.4251235,23.6862562 92.8662619,23.5686193 93.3137855,23.5787366 C93.8637186,23.562574 94.3992053,23.7562248 94.8115958,24.1203975 C95.2091587,24.4836982 95.439214,24.9949322 95.4474586,25.5334261 L94.5808011,25.5334261 C94.5623887,25.2078489 94.4209638,24.9014283 94.1851531,24.6761888 C93.9499521,24.4545037 93.6369092,24.3343629 93.3137855,24.341772 C92.8918144,24.3216096 92.4868581,24.5100023 92.2304636,24.8457522 C91.945914,25.2755515 91.810233,25.7868373 91.8442358,26.3011716 L91.8442358,26.4754451 C91.8136948,26.9754789 91.9476915,27.4717628 92.2257535,27.8884737 C92.4833313,28.2377752 92.8992297,28.4342209 93.3326259,28.4112943 L93.3326259,28.4112943 Z" id="Path" fill="#333330" fill-rule="nonzero"/>
                <path d="M96.3894777,26.3294322 C96.3821005,25.8406868 96.4885278,25.3569265 96.7003439,24.9164036 C96.887582,24.5162954 97.187035,24.1792062 97.5622914,23.946124 C97.9407804,23.7154494 98.3766843,23.5962697 98.8198868,23.6022871 C99.4937668,23.5783106 100.143176,23.8563822 100.590883,24.3606124 C101.055987,24.9259661 101.291382,25.6456031 101.250296,26.3765331 L101.250296,26.4424745 C101.260612,26.9304742 101.157417,27.4141983 100.94885,27.855503 C100.763803,28.2555824 100.465837,28.5928405 100.091612,28.8257827 C99.7063294,29.0607796 99.2616387,29.1801268 98.8104666,29.1696196 C98.1401002,29.194606 97.4937677,28.9181001 97.048891,28.4160044 C96.5772548,27.8450331 96.3413922,27.1155438 96.3894777,26.3765331 L96.3894777,26.3294322 Z M97.3314967,26.4377644 C97.3102849,26.9408646 97.4541926,27.437098 97.741275,27.8507929 C97.9996178,28.201294 98.4128664,28.403522 98.8481474,28.3924539 C99.2875251,28.4062442 99.704698,28.1994255 99.9597298,27.8413728 C100.258322,27.3888764 100.402108,26.8517456 100.369508,26.3105918 C100.391906,25.8059347 100.244292,25.3083609 99.9503096,24.8975633 C99.6884319,24.5532753 99.2807143,24.3511393 98.8481474,24.3511393 C98.4155804,24.3511393 98.0078628,24.5532753 97.7459851,24.8975633 C97.4288374,25.3467139 97.2697944,25.8884539 97.2938159,26.4377644 L97.3314967,26.4377644 Z" id="Shape" fill="#333330" fill-rule="nonzero"/>
                <path d="M105.564743,28.5290467 C105.164568,28.9657709 104.587211,29.1963671 103.996281,29.1554893 C103.509999,29.1892748 103.033284,29.0085705 102.691585,28.6609293 C102.357637,28.244684 102.189825,27.7194321 102.220576,27.1866695 L102.220576,23.7011991 L103.162595,23.7011991 L103.162595,27.163119 C103.162595,27.9732554 103.492301,28.3783236 104.151715,28.3783236 C104.742558,28.452304 105.313576,28.1363406 105.564743,27.5964478 L105.564743,23.7011991 L106.483212,23.7011991 L106.483212,29.0565773 L105.607134,29.0565773 L105.564743,28.5290467 Z" id="Path" fill="#333330" fill-rule="nonzero"/>
                <path d="M109.262168,22.4012128 L109.262168,23.7011991 L110.265418,23.7011991 L110.265418,24.4077133 L109.262168,24.4077133 L109.262168,27.7330406 C109.253173,27.9009672 109.30132,28.0669896 109.398761,28.2040501 C109.522176,28.3280002 109.69638,28.3872297 109.86977,28.3641933 C110.015673,28.3590727 110.160764,28.3401479 110.303099,28.3076722 L110.303099,29.0612874 C110.07445,29.1240326 109.838396,29.1557177 109.601295,29.1554893 C109.24739,29.1851565 108.89965,29.0495379 108.659276,28.7881019 C108.435077,28.4837801 108.325036,28.1103079 108.348409,27.7330406 L108.348409,24.4077133 L107.37342,24.4077133 L107.37342,23.7011991 L108.348409,23.7011991 L108.348409,22.4012128 L109.262168,22.4012128 Z" id="Path" fill="#333330" fill-rule="nonzero"/>
                <path d="M116.171878,29.0565773 L111.461782,29.0565773 L111.461782,28.4018741 L113.958133,25.627628 C114.249722,25.3146776 114.505637,24.970298 114.721168,24.6008273 C114.859778,24.3515813 114.932716,24.0711757 114.933122,23.7859808 C114.951269,23.4382991 114.827135,23.0982048 114.589286,22.8439617 C114.352535,22.5979515 114.021312,22.4658056 113.680237,22.4812844 C113.28639,22.4572563 112.900436,22.5990005 112.615756,22.8722223 C112.351663,23.1673149 112.216058,23.5554857 112.238948,23.9508341 L111.320479,23.9508341 C111.293961,23.3594409 111.515977,22.7839067 111.932792,22.363532 C112.398345,21.9361491 113.016135,21.7138126 113.647266,21.7465096 C114.222119,21.7188829 114.786553,21.9070275 115.229858,22.2740402 C115.623301,22.6359387 115.837018,23.1529965 115.81391,23.6870688 C115.81391,24.3998632 115.360171,25.2461103 114.452693,26.2258101 L112.521554,28.3218025 L116.171878,28.3218025 L116.171878,29.0565773 Z" id="Path" fill="#333330" fill-rule="nonzero"/>
                <path d="M120.952624,26.6355884 L121.955874,26.6355884 L121.955874,27.3844935 L120.952624,27.3844935 L120.952624,29.0565773 L120.034156,29.0565773 L120.034156,27.3844935 L116.737089,27.3844935 L116.737089,26.8475427 L119.963504,21.8501317 L120.938494,21.8501317 L120.952624,26.6355884 Z M117.78744,26.6355884 L120.034156,26.6355884 L120.034156,23.0794665 L119.925823,23.2772905 L117.78744,26.6355884 Z" id="Shape" fill="#333330" fill-rule="nonzero"/>
                <path d="M25.8746424,11.0969843 C25.5967958,10.7343178 25.26477,10.4165897 24.8902325,10.1549653 L24.8525517,10.1267047 L19.4359422,6.61297367 L17.198647,5.18110472 L15.2627979,7.06514281 L10.7599468,11.5350232 L9.9215499,12.3734201 C8.75728206,13.3646461 8.0717743,14.8059262 8.03751182,16.3346102 L8.03751182,24.3040913 L3.79842614,21.5486856 L3.4357488,21.2613698 C3.247345,21.1153568 2.89879795,20.8374612 2.8469869,20.7903602 C2.72767809,20.6137381 2.64001844,20.4176993 2.58793167,20.2110185 L2.52670043,11.0122026 C2.53000297,10.8270092 2.55050145,10.6425229 2.58793167,10.4611214 C2.69523518,10.0153535 2.91589006,9.6048705 3.22850462,9.26946736 L8.92300972,3.57967236 L9.036052,3.48547045 C9.1750843,3.39054995 9.33875192,3.33817631 9.50706152,3.3347474 C9.58316477,3.33633183 9.65827961,3.35231371 9.728436,3.38184836 L12.7994181,5.36950853 L14.6363552,3.5325714 L11.2592169,1.34237713 C10.7449823,0.981334547 10.1306478,0.790281452 9.50235143,0.795881102 C8.83003424,0.797712148 8.17370543,1.00117408 7.61831335,1.38005789 C7.53528444,1.4352525 7.45655746,1.49665954 7.38280859,1.56375161 L7.28389659,1.62498285 L1.48105929,7.42782014 C0.496726249,8.41928796 -0.0378678346,9.77109593 0.00208940039,11.1676357 L0.00208940039,12.7360974 L0.00208940039,18.9110322 L0.00208940039,19.8530513 C0.0236575309,20.6931494 0.283367531,21.5098475 0.750994538,22.2080989 C1.02809771,22.6116697 1.36845116,22.9679275 1.75895491,23.2631602 C1.93094657,23.3907344 2.1119764,23.505649 2.30061586,23.6069972 L2.30061586,23.6069972 L10.5809632,28.9765057 L10.5809632,16.3157698 C10.5830287,16.1574647 10.6003796,15.9997292 10.6327743,15.8447603 C10.7318557,15.4417946 10.9238002,15.0675835 11.1932756,14.7520182 L17.5236436,8.43107042 L23.4913342,12.3027687 C23.6371116,12.4024459 23.7659259,12.5248991 23.8728519,12.665446 C24.0793805,12.9273863 24.2126632,13.2394628 24.2590797,13.5697843 L24.2590797,21.7512197 L19.3558706,18.5719054 C19.2170227,18.4576827 19.094934,18.324495 18.9931933,18.1762574 C18.8403663,17.9515053 18.7390431,17.6957848 18.6964573,17.4273523 L18.6729068,11.4172708 L16.1294554,13.9560121 L16.1294554,17.2295283 C16.1655656,18.0692075 16.42932,18.8832643 16.8924908,19.5845759 C17.0863103,19.8673364 17.3105995,20.1279541 17.5613243,20.3617416 L18.0040733,20.7102886 L26.8025311,26.4330543 L26.8025311,13.4002209 C26.7096573,12.5620738 26.388724,11.7654424 25.8746424,11.0969843 Z" id="Path" fill="#0077FF" fill-rule="nonzero"/>
            </g>
        </g>
    </g>
</svg>